{"title":"jOBS 2013.Extras.720p.BluRay.x264 . NVEE","uid":9318532,"size":241625579,"categoryP":"video","categoryS":"hd___movies","magnet":"?xt=urn:btih:c9961a06f5a5828d887ca0240bf8b792396e0f40&amp;dn=jOBS+2013.Extras.720p.BluRay.x264+.+NVEE&amp;tr=udp%3A%2F%2Ftracker.openbittorrent.com%3A80&amp;tr=udp%3A%2F%2Fopen.demonii.com%3A1337&amp;tr=udp%3A%2F%2Ftracker.coppersurfer.tk%3A6969&amp;tr=udp%3A%2F%2Fexodus.desync.com%3A6969","seeders":0,"leechers":0,"uploader":".NVEE","files":19,"time":1386503240,"description":"\nFULL_INFOs\n\n\n99.99% --- SYNCED GUARANTEED \n\n&quot;Totally scrutinized / analyzed to be a verified torrent.&quot;\n___________________________________________\n\nSource : Blu-Ray ~ 720p\n\nMy Media Player of Choice &quot;VLC Media Player via HDMI&quot;\n\nSpoken Language : English Only\n\nAudio : 2 ~ Channels Only\n\nDon't delete torrent link,... Please seed . NVEE\n_____________________________________\n\n\n &lt;a href=&quot;\nhttp://www.imdb.com/title/tt2357129/&quot; rel=&quot;nofollow&quot; target=&quot;_NEW&quot;&gt;\nhttp://www.imdb.com/title/tt2357129/&lt;/a&gt;\n\n\n\nSubs Info : MULTI_SUBS\n\n\nAvailable in: English, Portuguese &amp; Russian.\n\nAll .srt subs can be turned On/Off\n\n\n &lt;a href=&quot;\nhttp://www.imdb.com/title/tt2357129/&quot; rel=&quot;nofollow&quot; target=&quot;_NEW&quot;&gt;\nhttp://www.imdb.com/title/tt2357129/&lt;/a&gt;\n\n\n\n---------------------------------------------------------------------------------\n\n\nGeneral Metadata\n\nComplete name : jOBS 2013.Extras.720p.BluRay.x264 . NVEE\nFormat : MPEG-4\nFormat profile : Base Media\nCodec ID : isom\nFile size : x4 @ 229.3 MiB\nOverall Duration : 12mn 17s\nEncoded date : UTC 2013-12-07 11:54:24\nTagged date : UTC 2013-12-07 11:54:24\n\n\nVideo\n\nID : 1\nFormat : AVC\nFormat/Info : Advanced Video Codec\nFormat profile : &lt;a class=&quot;__cf_email__&quot; href=&quot;/cdn-cgi/l/email-protection&quot; data-cfemail=&quot;d199b8b6b9919de2ffe3&quot;&gt;[email&amp;#160;protected]&lt;/a&gt;&lt;script data-cfhash='f9e31' type=&quot;text/javascript&quot;&gt;\n/* &lt;![CDATA[ */!function(){try{var t=&quot;currentScript&quot;in document?document.currentScript:function(){for(var t=document.getElementsByTagName(&quot;script&quot;),e=t.length;e--;)if(t[e].getAttribute(&quot;data-cfhash&quot;))return t[e]}();if(t&amp;&amp;t.previousSibling){var e,r,n,i,c=t.previousSibling,a=c.getAttribute(&quot;data-cfemail&quot;);if(a){for(e=&quot;&quot;,r=parseInt(a.substr(0,2),16),n=2;a.length-n;n+=2)i=parseInt(a.substr(n,2),16)^r,e+=String.fromCharCode(i);e=document.createTextNode(e),c.parentNode.replaceChild(e,c)}t.parentNode.removeChild(t);}}catch(u){}}()/* ]]&gt; */&lt;/script&gt;\nFormat settings, CABAC : Yes\nFormat settings, ReFrames : 3 frames\nCodec ID : avc1\nCodec ID/Info : Advanced Video Coding\nMaximum bit rate : 5 456 Kbps\nWidth : 1 280 pixels\nHeight : 720 pixels\nDisplay aspect ratio : 16:9\nFrame rate mode : Constant\nFrame rate : 23.976 fps\nColor space : YUV\nChroma subsampling : 4:2:0\nBit depth : 8 bits\nScan type : Progressive\nBits/(Pixel*Frame) : 0.111\nStream size : 183.44 MiB (81%)\nWriting library : x264 core 138 r2358 9e941d1\nEncoded date : UTC 2013-12-07 11:54:24\nTagged date : UTC 2013-12-07 11:54:25\nColor primaries : BT.709\nTransfer characteristics : BT.709\nMatrix coefficients : BT.709\n\n\nAudio\n\nID : 2\nFormat : AC-3\nFormat/Info : Audio Coding 3\nMode extension : CM (complete main)\nFormat settings, Endianness : Big\nCodec ID : ac-3\nDuration : 12mn 17s\nBit rate mode : Constant\nBit rate : 192 Kbps\nChannel(s) : 2 channels\nChannel positions : Front: L R\nSampling rate : 48.0 KHz\nBit depth : 16 bits\nCompression mode : Lossy\nStream size : 45.86 MiB (19%)\nLanguage : English\nEncoded date : UTC 2013-12-07 11:54:25\nTagged date : UTC 2013-12-07 11:54:25\n\nSurprisingly, for such a fantastic film &quot;Extras&quot; are somewhat of a sheer disappointment with video glitches to boot.\nPlease note, these glitches are also present on physical Blu-Ray.\nJust a few words is all these &quot;Extras&quot; deserve.\n\n\n\nEnjoy !","torrent":{"xt":"urn:btih:c9961a06f5a5828d887ca0240bf8b792396e0f40","amp;dn":"jOBS+2013.Extras.720p.BluRay.x264+.+NVEE","amp;tr":["udp%3A%2F%2Ftracker.openbittorrent.com%3A80","udp%3A%2F%2Fopen.demonii.com%3A1337","udp%3A%2F%2Ftracker.coppersurfer.tk%3A6969","udp%3A%2F%2Fexodus.desync.com%3A6969"],"infoHash":"c9961a06f5a5828d887ca0240bf8b792396e0f40","infoHashBuffer":{"type":"Buffer","data":[201,150,26,6,245,165,130,141,136,124,160,36,11,248,183,146,57,110,15,64]},"announce":[],"urlList":[]}}